<?xml version="1.0" encoding="UTF-8" standalone="no"?>
<!DOCTYPE svg PUBLIC "-//W3C//DTD SVG 1.1//EN" "http://www.w3.org/Graphics/SVG/1.1/DTD/svg11.dtd">
<svg width="100%" height="100%" viewBox="0 0 22 16" version="1.1" xmlns="http://www.w3.org/2000/svg" xmlns:xlink="http://www.w3.org/1999/xlink" xml:space="preserve" xmlns:serif="http://www.serif.com/" style="fill-rule:evenodd;clip-rule:evenodd;stroke-linejoin:round;stroke-miterlimit:2;">
    <g transform="matrix(1,0,0,1,-28,-183)">
        <g transform="matrix(0.467302,0,0,0.467302,-336.755,84.0148)">
            <g id="plant-green-sapling">
                <g id="Layer0_59_FILL">
                    <path d="M810.2,244L816.45,244C816.65,237.633 818.283,231.4 821.35,225.3C822.483,223.1 823.783,220.917 825.25,218.75C816.683,227.95 811.667,236.367 810.2,244M782.6,218.4C782.667,218.533 782.733,218.65 782.8,218.75C782.833,218.783 782.85,218.817 782.85,218.85C784.317,221.017 785.6,223.183 786.7,225.35C789.767,231.417 791.4,237.633 791.6,244L797.8,244C796.933,231.267 791.867,222.733 782.6,218.4Z" style="fill:rgb(64,159,110);fill-rule:nonzero;"/>
                    <path d="M788.25,212.2C787.817,212.067 787.367,212.067 786.9,212.2C786.467,212.267 786.083,212.467 785.75,212.8L783,215.85C782.6,216.25 782.383,216.717 782.35,217.25C782.35,217.65 782.433,218.033 782.6,218.4C791.867,222.733 796.933,231.267 797.8,244L810.2,244C811.667,236.367 816.683,227.95 825.25,218.75C825.55,218.283 825.683,217.783 825.65,217.25C825.65,216.717 825.45,216.25 825.05,215.85L822.3,212.8C821.967,212.467 821.583,212.267 821.15,212.2C820.683,212.067 820.233,212.067 819.8,212.2C813.4,214.533 808.133,217.933 804,222.4C799.9,217.933 794.65,214.533 788.25,212.2Z" style="fill:rgb(73,180,126);fill-rule:nonzero;"/>
                </g>
            </g>
        </g>
    </g>
</svg>
