<?xml version="1.0" encoding="UTF-8" standalone="no"?>
<!DOCTYPE svg PUBLIC "-//W3C//DTD SVG 1.1//EN" "http://www.w3.org/Graphics/SVG/1.1/DTD/svg11.dtd">
<svg width="100%" height="100%" viewBox="0 0 23 39" version="1.1" xmlns="http://www.w3.org/2000/svg" xmlns:xlink="http://www.w3.org/1999/xlink" xml:space="preserve" xmlns:serif="http://www.serif.com/" style="fill-rule:evenodd;clip-rule:evenodd;stroke-linejoin:round;stroke-miterlimit:2;">
    <g transform="matrix(1,0,0,1,-86,-287)">
        <g transform="matrix(0.771172,0,0,0.771172,-579.914,-91.1387)">
            <g id="plant-black-young">
                <g id="Layer0_132_FILL">
                    <path d="M879.6,500.8C879.4,500.767 879.217,500.733 879.05,500.7C878.783,500.667 878.533,500.683 878.3,500.75C877.933,500.883 877.633,501.133 877.4,501.5C877.167,501.833 877.083,502.217 877.15,502.65C877.25,503.083 877.45,503.45 877.75,503.75C877.783,503.817 877.833,503.85 877.9,503.85C881.233,506.783 883.217,509.85 883.85,513.05C884.617,517.317 884,521.067 882,524.3C881.2,525.467 880.233,526.617 879.1,527.75C877.067,529.783 875.45,532.05 874.25,534.55C873.417,536.15 872.15,537.417 870.45,538.35C868.717,539.25 866.517,539.8 863.85,540L892.2,540C888.5,536.7 887.35,533.233 888.75,529.6C890.45,524.833 890.633,519.55 889.3,513.75C887.8,507.283 884.567,502.967 879.6,500.8Z" style="fill:rgb(58,112,128);fill-rule:nonzero;"/>
                    <path d="M883.5,494.35C883.833,493.983 884.017,493.533 884.05,493C884.15,492.4 884.083,491.9 883.85,491.5C883.617,491.033 883.3,490.717 882.9,490.55C882.5,490.417 882.1,490.467 881.7,490.7C876.667,493.333 873.417,498.75 871.95,506.95C870.583,514.283 870.767,520.933 872.5,526.9C873.367,529.8 873.233,532.633 872.1,535.4C871.667,536.4 871.117,537.383 870.45,538.35C872.15,537.417 873.417,536.15 874.25,534.55C875.45,532.05 877.067,529.783 879.1,527.75C880.233,526.617 881.2,525.467 882,524.3C877.9,519.433 876.383,513.35 877.45,506.05C877.55,505.317 877.7,504.583 877.9,503.85C877.833,503.85 877.783,503.817 877.75,503.75C877.45,503.45 877.25,503.083 877.15,502.65C877.083,502.217 877.167,501.833 877.4,501.5C877.633,501.133 877.933,500.883 878.3,500.75C878.533,500.683 878.783,500.667 879.05,500.7C880.083,498.533 881.567,496.417 883.5,494.35Z" style="fill:rgb(44,84,96);fill-rule:nonzero;"/>
                </g>
            </g>
        </g>
    </g>
</svg>
