<?xml version="1.0" encoding="UTF-8" standalone="no"?>
<!DOCTYPE svg PUBLIC "-//W3C//DTD SVG 1.1//EN" "http://www.w3.org/Graphics/SVG/1.1/DTD/svg11.dtd">
<svg width="100%" height="100%" viewBox="0 0 32 50" version="1.1" xmlns="http://www.w3.org/2000/svg" xmlns:xlink="http://www.w3.org/1999/xlink" xml:space="preserve" xmlns:serif="http://www.serif.com/" style="fill-rule:evenodd;clip-rule:evenodd;stroke-linejoin:round;stroke-miterlimit:2;">
    <g transform="matrix(1,0,0,1,-150,-276)">
        <g transform="matrix(1,0,0,1,-563.906,-287.706)">
            <g id="plant-black-grown">
                <g id="Layer0_134_FILL">
                    <path d="M735.05,602.25C733.15,602.017 731.467,601.317 730,600.15L730,613L745.8,613C745.5,612.667 745.133,612.467 744.7,612.4C743.933,612.267 743.183,612.117 742.45,611.95C739.25,611.083 736.933,609.467 735.5,607.1L735.05,602.25M731.8,574.85C731.233,575.35 730.633,575.733 730,576L730,588.25C730.567,587.983 731.2,587.783 731.9,587.65C732.5,587.517 733.083,587.383 733.65,587.25L732.45,574.05C732.25,574.317 732.033,574.583 731.8,574.85Z" style="fill:rgb(44,84,96);fill-rule:nonzero;"/>
                    <path d="M733.65,587.25C733.083,587.383 732.5,587.517 731.9,587.65C731.2,587.783 730.567,587.983 730,588.25C727.933,589.15 726.917,590.717 726.95,592.95C726.95,595.55 727.8,597.8 729.5,599.7C729.667,599.833 729.833,599.983 730,600.15C731.467,601.317 733.15,602.017 735.05,602.25C735.45,602.283 735.85,602.3 736.25,602.3C739.083,602.3 740.833,600.617 741.5,597.25C742.2,593.95 743.15,591.55 744.35,590.05C745.583,588.55 745.45,586.933 743.95,585.2C742.25,583.733 740.65,583.6 739.15,584.8C737.917,585.767 736.083,586.583 733.65,587.25M725.45,565.05C724.483,564.25 723.433,564.35 722.3,565.35C721.333,566.45 721.233,567.5 722,568.5C722.8,569.5 723.433,571.083 723.9,573.25C724.367,575.417 725.517,576.5 727.35,576.5L727.4,576.5C728.333,576.5 729.2,576.333 730,576C730.633,575.733 731.233,575.35 731.8,574.85C732.033,574.583 732.25,574.317 732.45,574.05C733.15,572.983 733.5,571.767 733.5,570.4C733.5,568.533 732.4,567.383 730.2,566.95C728.033,566.483 726.45,565.85 725.45,565.05Z" style="fill:rgb(187,220,47);fill-rule:nonzero;"/>
                    <path d="M727.4,576.5L727.35,576.5L724.45,607.1C723.05,609.467 720.733,611.083 717.5,611.95C716.8,612.117 716.05,612.267 715.25,612.4C714.95,612.433 714.683,612.55 714.45,612.75C714.35,612.817 714.267,612.9 714.2,613L730,613L730,600.15C729.833,599.983 729.667,599.833 729.5,599.7C727.8,597.8 726.95,595.55 726.95,592.95C726.917,590.717 727.933,589.15 730,588.25L730,576C729.2,576.333 728.333,576.5 727.4,576.5Z" style="fill:rgb(58,112,128);fill-rule:nonzero;"/>
                </g>
            </g>
        </g>
    </g>
</svg>
