<?xml version="1.0" encoding="UTF-8" standalone="no"?>
<!DOCTYPE svg PUBLIC "-//W3C//DTD SVG 1.1//EN" "http://www.w3.org/Graphics/SVG/1.1/DTD/svg11.dtd">
<svg width="100%" height="100%" viewBox="0 0 32 36" version="1.1" xmlns="http://www.w3.org/2000/svg" xmlns:xlink="http://www.w3.org/1999/xlink" xml:space="preserve" xmlns:serif="http://www.serif.com/" style="fill-rule:evenodd;clip-rule:evenodd;stroke-linejoin:round;stroke-miterlimit:2;">
    <g transform="matrix(1,0,0,1,-81,-359)">
        <g id="plant-yellow-young" transform="matrix(-0.931042,0,0,0.931042,776.585,236.079)">
            <path d="M727.5,140C726.867,141.933 726.717,143.85 727.05,145.75C729.117,146.85 731.183,146.85 733.25,145.75C732.883,148.95 733.9,151.217 736.3,152.55C739.7,151.583 742.417,148.733 744.45,144C745.55,141 746.117,137.517 746.15,133.55C746.15,133.45 746.117,133.367 746.05,133.3C745.983,133.2 745.9,133.15 745.8,133.15C742.133,132.583 738.817,132.65 735.85,133.35C731.717,134.25 728.95,136.45 727.55,139.95L727.5,140Z" style="fill:rgb(36,147,236);fill-rule:nonzero;"/>
            <path d="M722.25,144C718.917,144.233 716.367,145.717 714.6,148.45L714.6,148.5C713.933,149.6 713.483,150.917 713.25,152.45C713.25,152.55 713.283,152.65 713.35,152.75C713.383,152.817 713.45,152.867 713.55,152.9C713.65,152.933 713.767,152.933 713.9,152.9C716.667,151.667 719.017,151.75 720.95,153.15L720.95,153.2C722.75,154.533 723.633,156.483 723.6,159.05C723.533,163.983 721.95,167.633 718.85,170L737.75,170C735.217,164.133 734.733,158.317 736.3,152.55C733.9,151.217 732.883,148.95 733.25,145.75C731.183,146.85 729.117,146.85 727.05,145.75C725.65,144.517 724.067,143.933 722.3,144L722.25,144Z" style="fill:rgb(234,217,76);fill-rule:nonzero;"/>
        </g>
    </g>
</svg>
