<?xml version="1.0" encoding="UTF-8" standalone="no"?>
<!DOCTYPE svg PUBLIC "-//W3C//DTD SVG 1.1//EN" "http://www.w3.org/Graphics/SVG/1.1/DTD/svg11.dtd">
<svg width="100%" height="100%" viewBox="0 0 30 58" version="1.1" xmlns="http://www.w3.org/2000/svg" xmlns:xlink="http://www.w3.org/1999/xlink" xml:space="preserve" xmlns:serif="http://www.serif.com/" style="fill-rule:evenodd;clip-rule:evenodd;stroke-linejoin:round;stroke-miterlimit:2;">
    <g transform="matrix(1,0,0,1,-150,-201)">
        <g transform="matrix(1.02838,0,0,1.02838,-586.534,-220.958)">
            <g id="plant-blue-grown">
                <g id="Layer0_126_FILL">
                    <path d="M727.45,437.45C726.983,437.017 726.517,436.633 726.05,436.3C725.183,435.667 724.267,435.217 723.3,434.95C721.867,434.617 720.767,434.833 720,435.6C719.267,436.333 719.067,437.433 719.4,438.9C719.767,440.333 720.6,441.7 721.9,443C721.933,443.033 721.967,443.067 722,443.1C722.567,443.667 723.333,443.883 724.3,443.75C724.833,443.683 725.333,443.533 725.8,443.3C726.167,443.1 726.533,442.817 726.9,442.45C727.667,441.683 728.1,440.817 728.2,439.85C728.333,438.917 728.1,438.15 727.5,437.55C727.467,437.55 727.45,437.517 727.45,437.45M730.95,442.2C730.917,442.267 730.867,442.317 730.8,442.35C729.833,443.317 729.45,444.583 729.65,446.15C729.85,447.783 730.583,449.233 731.85,450.5C732.717,451.367 733.65,451.983 734.65,452.35C735.117,452.517 735.617,452.633 736.15,452.7C737.75,452.9 739.033,452.517 740,451.55C740.067,451.517 740.117,451.467 740.15,451.4C742.317,449.267 743.7,446.983 744.3,444.55C744.9,442.15 744.567,440.317 743.3,439.05C742.033,437.783 740.2,437.433 737.8,438C736.233,438.433 734.717,439.2 733.25,440.3C732.45,440.833 731.683,441.467 730.95,442.2M736.7,424.2L736.7,423.95C736.7,420.35 735.933,417.283 734.4,414.75C732.9,412.217 731.083,410.95 728.95,410.95C726.817,410.95 724.983,412.217 723.45,414.75C721.95,417.283 721.2,420.35 721.2,423.95L721.2,424.2C721.233,425.833 721.983,427.233 723.45,428.4C724.317,429.067 725.283,429.55 726.35,429.85C727.15,430.083 728.017,430.2 728.95,430.2C730.05,430.2 731.067,430.05 732,429.75C732.867,429.45 733.667,429 734.4,428.4C735.9,427.233 736.667,425.833 736.7,424.2Z" style="fill:rgb(243,243,243);fill-rule:nonzero;"/>
                    <path d="M729.4,452.9C729.433,452.433 729.317,452.017 729.05,451.65C728.75,451.25 728.383,451 727.95,450.9L725.5,450.2L719.05,448.35C718.55,448.183 718.067,448.233 717.6,448.5C717.1,448.733 716.767,449.117 716.6,449.65C716.433,450.15 716.467,450.65 716.7,451.15L723.95,466L728.85,466L729.4,452.9Z" style="fill:rgb(36,147,236);fill-rule:nonzero;"/>
                    <path d="M730.8,442.35C730.867,442.317 730.917,442.267 730.95,442.2C731.683,441.467 732.45,440.833 733.25,440.3L732,429.75C731.067,430.05 730.05,430.2 728.95,430.2C728.017,430.2 727.15,430.083 726.35,429.85L726.05,436.3C726.517,436.633 726.983,437.017 727.45,437.45C727.45,437.517 727.467,437.55 727.5,437.55C728.1,438.15 728.333,438.917 728.2,439.85C728.1,440.817 727.667,441.683 726.9,442.45C726.533,442.817 726.167,443.1 725.8,443.3L725.5,450.2L727.95,450.9C728.383,451 728.75,451.25 729.05,451.65C729.317,452.017 729.433,452.433 729.4,452.9L728.85,466L738.2,466L743.2,458.35C743.4,457.983 743.5,457.6 743.5,457.2C743.5,456.767 743.367,456.383 743.1,456.05C742.833,455.717 742.5,455.483 742.1,455.35C741.7,455.217 741.3,455.217 740.9,455.35L735.2,457.15L734.65,452.35C733.65,451.983 732.717,451.367 731.85,450.5C730.583,449.233 729.85,447.783 729.65,446.15C729.45,444.583 729.833,443.317 730.8,442.35Z" style="fill:rgb(33,133,213);fill-rule:nonzero;"/>
                </g>
            </g>
        </g>
    </g>
</svg>
