<?xml version="1.0" encoding="UTF-8" standalone="no"?>
<!DOCTYPE svg PUBLIC "-//W3C//DTD SVG 1.1//EN" "http://www.w3.org/Graphics/SVG/1.1/DTD/svg11.dtd">
<svg width="100%" height="100%" viewBox="0 0 25 13" version="1.1" xmlns="http://www.w3.org/2000/svg" xmlns:xlink="http://www.w3.org/1999/xlink" xml:space="preserve" xmlns:serif="http://www.serif.com/" style="fill-rule:evenodd;clip-rule:evenodd;stroke-linejoin:round;stroke-miterlimit:2;">
    <g transform="matrix(1,0,0,1,-30,-252)">
        <g transform="matrix(0.55651,0,0,0.55651,-405.375,4.9309)">
            <g id="plant-blue-sapling">
                <g id="Layer0_128_FILL">
                    <path d="M822.7,444.5C822.433,444.433 822.183,444.45 821.95,444.55L806.6,449.6C806.333,449.7 806.117,449.85 805.95,450.05C805.783,450.217 805.683,450.433 805.65,450.7L804.05,459.75L802.4,450.7C802.367,450.433 802.267,450.217 802.1,450.05C801.933,449.85 801.717,449.7 801.45,449.6L786.1,444.55C785.867,444.45 785.617,444.433 785.35,444.5C785.317,444.5 785.283,444.517 785.25,444.55L804.35,465.65C804.483,465.55 804.583,465.45 804.65,465.35C804.85,465.017 804.917,464.7 804.85,464.4L822.8,444.55C822.767,444.517 822.733,444.5 822.7,444.5Z" style="fill:rgb(36,147,236);fill-rule:nonzero;"/>
                    <path d="M823.35,444.9C823.217,444.733 823.033,444.617 822.8,444.55L804.85,464.4C804.917,464.7 804.85,465.017 804.65,465.35C804.583,465.45 804.483,465.55 804.35,465.65L785.25,444.55C785.017,444.617 784.833,444.733 784.7,444.9C784.533,445.1 784.417,445.317 784.35,445.55L782.4,454.1C782.333,454.4 782.367,454.7 782.5,455C782.667,455.3 782.867,455.533 783.1,455.7L802.8,465.85C803.133,465.983 803.483,466.017 803.85,465.95C803.917,465.917 803.983,465.9 804.05,465.9C804.083,465.9 804.133,465.917 804.2,465.95C804.567,466.017 804.917,465.983 805.25,465.85L824.95,455.7C825.183,455.533 825.383,455.3 825.55,455C825.683,454.7 825.717,454.4 825.65,454.1L823.7,445.55C823.633,445.317 823.517,445.1 823.35,444.9Z" style="fill:rgb(33,133,213);fill-rule:nonzero;"/>
                </g>
            </g>
        </g>
    </g>
</svg>
