<?xml version="1.0" encoding="UTF-8" standalone="no"?>
<!DOCTYPE svg PUBLIC "-//W3C//DTD SVG 1.1//EN" "http://www.w3.org/Graphics/SVG/1.1/DTD/svg11.dtd">
<svg width="100%" height="100%" viewBox="0 0 45 56" version="1.1" xmlns="http://www.w3.org/2000/svg" xmlns:xlink="http://www.w3.org/1999/xlink" xml:space="preserve" xmlns:serif="http://www.serif.com/" style="fill-rule:evenodd;clip-rule:evenodd;stroke-linejoin:round;stroke-miterlimit:2;">
    <g transform="matrix(1,0,0,1,-138,-87)">
        <g transform="matrix(1.1177,0,0,1.1177,-823.469,-47.1612)">
            <g id="plant-red-grown">
                <g id="Layer0_28_FILL">
                    <path d="M873.4,170L884.35,170C887.083,162.167 892.083,155.95 899.35,151.35C899.583,151.183 899.767,150.95 899.9,150.65C900.033,150.35 900.05,150.05 899.95,149.75C899.883,149.45 899.733,149.2 899.5,149C894.8,145 890.083,143.633 885.35,144.9C881.35,147.267 878.983,152.183 878.25,159.65C878.15,159.017 878.033,158.4 877.9,157.8C877.767,157.4 877.633,157.017 877.5,156.65C876.567,153.717 874.967,151.583 872.7,150.25C872.133,149.917 871.617,149.733 871.15,149.7C867.85,149.233 864.55,150.4 861.25,153.2C861.05,153.367 860.917,153.567 860.85,153.8C860.817,154.033 860.833,154.283 860.9,154.55C861,154.783 861.15,154.967 861.35,155.1C867.183,158.767 871.2,163.733 873.4,170Z" style="fill:rgb(221,78,84);fill-rule:nonzero;"/>
                    <path d="M864,121.8C863.967,122.1 864.033,122.383 864.2,122.65C868.033,128.95 870.283,135.5 870.95,142.3C871.05,143.167 871.117,144.033 871.15,144.9L871.15,149.7C871.617,149.733 872.133,149.917 872.7,150.25C874.967,151.583 876.567,153.717 877.5,156.65C877.633,157.017 877.767,157.4 877.9,157.8C878.033,158.4 878.15,159.017 878.25,159.65C878.983,152.183 881.35,147.267 885.35,144.9C885.383,144.367 885.417,143.85 885.45,143.35C885.483,143.217 885.517,143.083 885.55,142.95C885.583,142.783 885.617,142.617 885.65,142.45C886.783,137.783 888.7,133.217 891.4,128.75C891.567,128.483 891.633,128.2 891.6,127.9C891.6,127.6 891.5,127.317 891.3,127.05C891.1,126.817 890.85,126.667 890.55,126.6C890.25,126.533 889.95,126.55 889.65,126.65C884.883,128.517 881.083,131.2 878.25,134.7C876.95,129.267 874.517,125.367 870.95,123C869.417,122.067 867.75,121.25 865.95,120.55C865.683,120.45 865.4,120.433 865.1,120.5C864.8,120.567 864.55,120.717 864.35,120.95C864.15,121.217 864.033,121.5 864,121.8Z" style="fill:rgb(234,217,76);fill-rule:nonzero;"/>
                </g>
            </g>
        </g>
    </g>
</svg>
