<?xml version="1.0" encoding="UTF-8" standalone="no"?>
<!DOCTYPE svg PUBLIC "-//W3C//DTD SVG 1.1//EN" "http://www.w3.org/Graphics/SVG/1.1/DTD/svg11.dtd">
<svg width="100%" height="100%" viewBox="0 0 42 49" version="1.1" xmlns="http://www.w3.org/2000/svg" xmlns:xlink="http://www.w3.org/1999/xlink" xml:space="preserve" xmlns:serif="http://www.serif.com/" style="fill-rule:evenodd;clip-rule:evenodd;stroke-linejoin:round;stroke-miterlimit:2;">
    <g transform="matrix(1,0,0,1,-138,-150)">
        <g transform="matrix(1,0,0,1,-643.665,-119.81)">
            <g id="plant-green-grown">
                <g id="Layer0_62_FILL">
                    <path d="M821.45,291.2C820.617,290.367 819.65,289.917 818.55,289.85L816.3,298.95C816.867,299.183 817.467,299.3 818.1,299.3C819.4,299.3 820.517,298.833 821.45,297.9C822.383,296.967 822.85,295.85 822.85,294.55C822.85,293.25 822.383,292.133 821.45,291.2M799.2,274.8C798.2,273.8 796.983,273.3 795.55,273.3C794.117,273.3 792.9,273.8 791.9,274.8C791.767,274.933 791.667,275.067 791.6,275.2L795.4,283.6L795.55,283.6C796.983,283.6 798.2,283.1 799.2,282.1C800.2,281.1 800.7,279.883 800.7,278.45C800.7,277.017 800.2,275.8 799.2,274.8M788.2,284.5C786.6,284.5 785.217,285.067 784.05,286.2C782.917,287.367 782.35,288.75 782.35,290.35C782.35,291.95 782.917,293.317 784.05,294.45C785.217,295.617 786.6,296.2 788.2,296.2C789.8,296.2 791.167,295.617 792.3,294.45C792.4,294.383 792.483,294.3 792.55,294.2C793.55,293.133 794.05,291.85 794.05,290.35C794.05,288.75 793.467,287.367 792.3,286.2C791.533,285.433 790.683,284.933 789.75,284.7C789.25,284.567 788.733,284.5 788.2,284.5Z" style="fill:rgb(255,217,68);fill-rule:nonzero;"/>
                    <path d="M816.8,283.65C816.333,283.817 815.983,284.117 815.75,284.55L804.95,304.55L811.05,318L821.75,318C821.617,317.767 821.433,317.567 821.2,317.4L813.2,311.55L816.3,298.95L818.55,289.85L819.45,286C819.583,285.5 819.533,285.033 819.3,284.6C819.067,284.133 818.717,283.817 818.25,283.65C817.75,283.45 817.267,283.45 816.8,283.65M790.55,318L799.6,318L796.6,307.85L790.55,318Z" style="fill:rgb(64,159,110);fill-rule:nonzero;"/>
                    <path d="M787.55,270.9C787.05,271.067 786.683,271.4 786.45,271.9C786.217,272.367 786.183,272.85 786.35,273.35L789.75,284.7C790.683,284.933 791.533,285.433 792.3,286.2C793.467,287.367 794.05,288.75 794.05,290.35C794.05,291.85 793.55,293.133 792.55,294.2L796.6,307.85L799.6,318L811.05,318L804.95,304.55L795.4,283.6L791.6,275.2L790.1,271.95C789.867,271.45 789.517,271.1 789.05,270.9C788.55,270.7 788.05,270.7 787.55,270.9Z" style="fill:rgb(73,180,126);fill-rule:nonzero;"/>
                </g>
            </g>
        </g>
    </g>
</svg>
