<?xml version="1.0" encoding="UTF-8" standalone="no"?>
<!DOCTYPE svg PUBLIC "-//W3C//DTD SVG 1.1//EN" "http://www.w3.org/Graphics/SVG/1.1/DTD/svg11.dtd">
<svg width="100%" height="100%" viewBox="0 0 23 27" version="1.1" xmlns="http://www.w3.org/2000/svg" xmlns:xlink="http://www.w3.org/1999/xlink" xml:space="preserve" xmlns:serif="http://www.serif.com/" style="fill-rule:evenodd;clip-rule:evenodd;stroke-linejoin:round;stroke-miterlimit:2;">
    <g transform="matrix(1,0,0,1,-88,-232)">
        <g transform="matrix(0.657526,0,0,0.657526,-477.933,-47.9044)">
            <g id="plant-blue-young">
                <g id="Layer0_127_FILL">
                    <path d="M878.25,427.95C877.583,427.283 876.767,426.95 875.8,426.95C874.867,426.95 874.05,427.283 873.35,427.95C872.683,428.617 872.35,429.433 872.35,430.4C872.35,431.367 872.683,432.183 873.35,432.85C874.05,433.517 874.867,433.85 875.8,433.85C876.767,433.85 877.583,433.517 878.25,432.85C878.917,432.183 879.25,431.367 879.25,430.4C879.25,429.433 878.917,428.617 878.25,427.95M876.9,456.2C876.967,456.1 877.033,456.017 877.1,455.95C878.2,454.85 878.75,453.5 878.75,451.9C878.75,450.333 878.2,448.983 877.1,447.85C876.5,447.25 875.817,446.817 875.05,446.55L876.9,456.2M880.8,434.95C879.233,434.95 877.883,435.5 876.75,436.6C875.65,437.733 875.1,439.083 875.1,440.65C875.1,442.25 875.65,443.6 876.75,444.7C877.883,445.8 879.233,446.35 880.8,446.35L881.05,446.35C882.55,446.283 883.817,445.733 884.85,444.7C885.517,444.033 885.983,443.283 886.25,442.45C886.417,441.883 886.5,441.283 886.5,440.65C886.5,439.083 885.95,437.733 884.85,436.6C883.75,435.5 882.4,434.95 880.8,434.95Z" style="fill:white;fill-rule:nonzero;"/>
                    <path d="M894.65,440.8C894.65,440.467 894.55,440.183 894.35,439.95C894.317,439.883 894.267,439.85 894.2,439.85C889.733,449.75 884.483,458.05 878.45,464.75C878.417,464.917 878.35,465.083 878.25,465.25C878.25,465.283 878.233,465.317 878.2,465.35C878.133,465.283 878.083,465.217 878.05,465.15C877.883,465.017 877.75,464.867 877.65,464.7C875.617,462.467 873.683,460.067 871.85,457.5C870.317,455.367 868.85,453.117 867.45,450.75C865.45,447.35 863.583,443.717 861.85,439.85C861.783,439.85 861.733,439.883 861.7,439.95C861.5,440.183 861.4,440.467 861.4,440.8L861.4,461.2C861.4,461.5 861.5,461.783 861.7,462.05C861.9,462.283 862.15,462.433 862.45,462.5L876.7,465.95C877.033,466.017 877.333,465.983 877.6,465.85C877.767,465.75 877.917,465.65 878.05,465.55C878.15,465.65 878.283,465.75 878.45,465.85C878.717,465.983 879.017,466.017 879.35,465.95L893.6,462.5C893.9,462.433 894.15,462.283 894.35,462.05C894.55,461.783 894.65,461.5 894.65,461.2L894.65,440.8Z" style="fill:rgb(33,133,213);fill-rule:nonzero;"/>
                    <path d="M894.2,439.85C894.067,439.65 893.867,439.517 893.6,439.45C893.3,439.383 893.017,439.417 892.75,439.55L886.25,442.45C885.983,443.283 885.517,444.033 884.85,444.7C883.817,445.733 882.55,446.283 881.05,446.35L878.05,462.4L876.9,456.2L875.05,446.55L874.8,445.3C874.8,445.067 874.717,444.883 874.55,444.75C874.417,444.55 874.25,444.4 874.05,444.3L863.3,439.55C863.033,439.417 862.75,439.383 862.45,439.45C862.183,439.517 861.983,439.65 861.85,439.85C863.583,443.717 865.45,447.35 867.45,450.75C868.85,453.117 870.317,455.367 871.85,457.5C873.683,460.067 875.617,462.467 877.65,464.7C877.75,464.867 877.883,465.017 878.05,465.15C878.083,465.217 878.133,465.283 878.2,465.35C878.233,465.317 878.25,465.283 878.25,465.25C878.35,465.083 878.417,464.917 878.45,464.75C884.483,458.05 889.733,449.75 894.2,439.85Z" style="fill:rgb(36,147,236);fill-rule:nonzero;"/>
                </g>
            </g>
        </g>
    </g>
</svg>
