<?xml version="1.0" encoding="UTF-8" standalone="no"?>
<!DOCTYPE svg PUBLIC "-//W3C//DTD SVG 1.1//EN" "http://www.w3.org/Graphics/SVG/1.1/DTD/svg11.dtd">
<svg width="100%" height="100%" viewBox="0 0 36 38" version="1.1" xmlns="http://www.w3.org/2000/svg" xmlns:xlink="http://www.w3.org/1999/xlink" xml:space="preserve" xmlns:serif="http://www.serif.com/" style="fill-rule:evenodd;clip-rule:evenodd;stroke-linejoin:round;stroke-miterlimit:2;">
    <g transform="matrix(1.47705,0,0,1.47705,-1020.35,-583.548)">
        <g id="ui-button-left">
            <g id="arrow">
                <g transform="matrix(1,0,0,1,104.307,80.5)">
                    <path d="M607.9,332.3C608.033,332.8 607.983,333.283 607.75,333.75C607.517,334.217 607.15,334.533 606.65,334.7L605.15,334.65L591.15,328.3C590.683,328.067 590.35,327.7 590.15,327.2C589.95,326.7 589.95,326.2 590.15,325.7C590.35,325.2 590.683,324.85 591.15,324.65L605.15,318.25L606.6,318.15C607.1,318.317 607.483,318.633 607.75,319.1C608.017,319.567 608.067,320.05 607.9,320.55L606.4,326.45L607.9,332.3ZM606,332.8L604.35,326.45L592,326.45L606,332.8Z" style="fill:rgb(233,233,233);fill-rule:nonzero;"/>
                </g>
                <g transform="matrix(1,0,0,1,104.307,80.5)">
                    <path d="M609.85,321.05L608.45,326.45L609.85,331.8C610.117,332.8 610,333.767 609.5,334.7C609.033,335.633 608.3,336.267 607.3,336.6L607.25,336.6L604.35,336.45L590.35,330.1C589.383,329.667 588.7,328.95 588.3,327.95C587.9,326.95 587.9,325.95 588.3,324.95C588.7,323.95 589.383,323.233 590.35,322.8L604.35,316.4L607.25,316.25C608.25,316.583 609,317.217 609.5,318.15C610,319.083 610.117,320.05 609.85,321.05M607.9,332.3L606.4,326.45L607.9,320.55C608.067,320.05 608.017,319.567 607.75,319.1C607.483,318.633 607.1,318.317 606.6,318.15L605.15,318.25L591.15,324.65C590.683,324.85 590.35,325.2 590.15,325.7C589.95,326.2 589.95,326.7 590.15,327.2C590.35,327.7 590.683,328.067 591.15,328.3L605.15,334.65L606.65,334.7C607.15,334.533 607.517,334.217 607.75,333.75C607.983,333.283 608.033,332.8 607.9,332.3" style="fill:rgb(170,170,170);fill-rule:nonzero;"/>
                </g>
                <g transform="matrix(1,0,0,1,104.307,80.5)">
                    <path d="M606,332.8L592,326.45L604.35,326.45L606,332.8Z" style="fill:rgb(219,219,219);fill-rule:nonzero;"/>
                </g>
            </g>
        </g>
    </g>
</svg>
