<?xml version="1.0" encoding="UTF-8" standalone="no"?>
<!DOCTYPE svg PUBLIC "-//W3C//DTD SVG 1.1//EN" "http://www.w3.org/Graphics/SVG/1.1/DTD/svg11.dtd">
<svg width="100%" height="100%" viewBox="0 0 21 33" version="1.1" xmlns="http://www.w3.org/2000/svg" xmlns:xlink="http://www.w3.org/1999/xlink" xml:space="preserve" xmlns:serif="http://www.serif.com/" style="fill-rule:evenodd;clip-rule:evenodd;stroke-linejoin:round;stroke-miterlimit:2;">
    <g transform="matrix(1,0,0,1,-400,-151)">
        <g transform="matrix(1,0,0,1,-64.875,-9.56836)">
            <path d="M473.35,171.85C473.117,172.05 472.833,172.15 472.5,172.15L466.15,172.15L465.55,171.95L465.1,171.5L465,170.75C465.267,167.683 466.35,165.3 468.25,163.6C470.117,161.867 472.467,161 475.3,161C478.133,161 480.45,161.767 482.25,163.3C484.083,164.933 485,167.167 485,170C485,171.367 484.817,172.367 484.45,173L483.9,174.05L483.95,174.05L483.05,175.4L483,175.45L482.2,176.35L482.2,176.4L480.35,178.2L479.6,179.05L479.3,179.05L479.3,179.1L479.6,179.1L479.4,179.35L479.3,180.2L479.3,180.9L478.95,181.7L478.05,182L471.95,182L471.1,181.7C470.867,181.467 470.733,181.2 470.7,180.9L470.7,178.1L470.85,178.1C470.917,177.5 471.05,177.017 471.25,176.65C471.55,176.017 472.217,175.15 473.25,174.05L475.95,171.35L476.2,170.25L475.85,169.15C475.683,168.917 475.45,168.817 475.15,168.85C474.85,168.85 474.583,168.983 474.35,169.25L474.35,169.2C474.05,169.667 473.867,170.283 473.8,171.05L473.35,171.85M475.4,184C476.667,184 477.75,184.417 478.65,185.25C479.55,186.117 480,187.183 480,188.45C480,189.717 479.55,190.8 478.65,191.7C477.75,192.567 476.667,193 475.4,193C474.2,193 473.167,192.567 472.3,191.7C471.433,190.833 471,189.75 471,188.45C471,187.183 471.433,186.117 472.3,185.25C473.167,184.417 474.2,184 475.4,184" style="fill:rgb(36,147,236);fill-rule:nonzero;"/>
        </g>
    </g>
</svg>
