<?xml version="1.0" standalone="no"?>
<!DOCTYPE svg PUBLIC "-//W3C//DTD SVG 20010904//EN"
 "http://www.w3.org/TR/2001/REC-SVG-20010904/DTD/svg10.dtd">
<svg version="1.0" xmlns="http://www.w3.org/2000/svg"
 width="501.000000pt" height="501.000000pt" viewBox="0 0 501.000000 501.000000"
 preserveAspectRatio="xMidYMid meet">
<metadata>
Created by potrace 1.14, written by Peter Selinger 2001-2017
</metadata>
<g transform="translate(0.000000,501.000000) scale(0.100000,-0.100000)"
fill="#000000" stroke="none">
<path d="M3265 3839 c-22 -12 -47 -27 -56 -35 -8 -8 -19 -14 -23 -14 -4 0 -12
-5 -19 -10 -7 -6 -62 -43 -122 -83 -104 -68 -113 -72 -150 -65 -22 4 -53 9
-70 12 -16 3 -57 10 -90 16 -33 6 -78 13 -100 16 -22 3 -56 10 -75 14 -19 5
-65 12 -102 16 l-67 6 -38 -39 c-21 -22 -63 -68 -93 -102 -55 -62 -121 -136
-198 -221 -23 -25 -49 -59 -58 -77 -17 -30 -17 -35 0 -105 10 -40 20 -83 22
-94 2 -12 17 -81 34 -153 l30 -132 -71 -147 c-39 -81 -86 -177 -104 -214 -48
-97 -51 -120 -22 -171 l24 -44 -106 47 c-58 26 -223 100 -365 164 -143 64
-270 116 -284 116 -13 0 -56 -13 -95 -29 -40 -16 -117 -46 -172 -66 -55 -21
-108 -45 -119 -54 -10 -9 -28 -38 -41 -66 -12 -27 -34 -75 -48 -105 -46 -100
-194 -434 -220 -496 -30 -71 -40 -113 -28 -128 4 -6 16 -33 26 -61 35 -99 87
-231 103 -267 17 -36 27 -41 388 -202 204 -91 378 -166 386 -166 18 0 357 128
384 145 17 11 60 99 177 365 11 25 53 119 93 208 41 90 75 176 76 190 1 23
-84 262 -113 314 -18 34 -8 32 13 -2 11 -19 28 -46 37 -60 8 -14 16 -27 16
-30 0 -3 12 -23 26 -45 14 -22 43 -70 63 -108 37 -65 63 -90 98 -93 9 -1 36
-4 60 -8 64 -10 185 -26 248 -32 112 -11 117 -14 285 -179 87 -86 169 -158
181 -161 18 -5 114 5 294 31 8 1 40 5 70 9 30 4 66 9 80 11 14 3 47 7 73 10
27 3 58 11 69 18 10 7 60 95 109 197 50 102 100 205 112 229 24 47 11 39 380
214 65 31 68 34 82 82 8 28 19 79 25 115 5 36 12 76 15 90 2 13 7 40 10 60 3
20 8 47 10 60 24 119 35 208 30 228 -3 13 -80 97 -171 186 l-164 161 -46 205
c-48 220 -65 264 -104 286 -44 24 -517 252 -537 258 -10 3 -36 -3 -58 -15z"/>
</g>
</svg>
