<?xml version="1.0" encoding="UTF-8" standalone="no"?>
<!DOCTYPE svg PUBLIC "-//W3C//DTD SVG 1.1//EN" "http://www.w3.org/Graphics/SVG/1.1/DTD/svg11.dtd">
<svg width="100%" height="100%" viewBox="0 0 41 74" version="1.1" xmlns="http://www.w3.org/2000/svg" xmlns:xlink="http://www.w3.org/1999/xlink" xml:space="preserve" xmlns:serif="http://www.serif.com/" style="fill-rule:evenodd;clip-rule:evenodd;stroke-linejoin:round;stroke-miterlimit:2;">
    <g transform="matrix(1,0,0,1,-260,-156)">
        <g>
            <path d="M286.35,158.95L286.35,162.55L274.85,162.55L274.85,158.95L286.35,158.95" style="fill:rgb(215,215,215);fill-rule:nonzero;"/>
            <path d="M286.35,158.95L298.25,158.95L298.25,162.55L286.35,162.55L286.35,158.95M274.85,158.95L274.85,162.55L263,162.55L263,158.95L274.85,158.95" style="fill:rgb(58,103,168);fill-rule:nonzero;"/>
            <path d="M274.85,158.95L260.8,158.95L260.8,156.75L300.45,156.75L300.45,158.95L274.85,158.95" style="fill:rgb(255,204,0);fill-rule:nonzero;"/>
            <path d="M274.85,162.55L286.35,162.55L286.35,199.05L274.85,199.05L274.85,162.55" style="fill:rgb(239,239,239);fill-rule:nonzero;"/>
            <path d="M274.85,162.55L274.85,199.05L263,187.15L263,162.55L274.85,162.55M286.35,162.55L298.25,162.55L298.25,187.15L286.35,199.05L286.35,162.55" style="fill:rgb(78,132,211);fill-rule:nonzero;"/>
            <path d="M287.25,205.1C285.383,203.233 283.217,202.333 280.75,202.4C278.017,202.333 275.733,203.233 273.9,205.1C272.067,206.933 271.15,209.167 271.15,211.8C271.15,214.4 272.067,216.617 273.9,218.45C275.733,220.283 278.017,221.2 280.75,221.2C283.217,221.2 285.383,220.283 287.25,218.45C289.15,216.617 290.1,214.4 290.1,211.8C290.1,209.167 289.15,206.933 287.25,205.1M268.8,211.8C268.8,208.467 269.95,205.683 272.25,203.45C274.55,201.15 277.383,200.017 280.75,200.05C283.917,200.017 286.65,201.15 288.95,203.45C291.283,205.683 292.467,208.467 292.5,211.8C292.467,215.067 291.283,217.867 288.95,220.2C286.65,222.533 283.917,223.7 280.75,223.7C277.383,223.7 274.55,222.533 272.25,220.2C269.95,217.867 268.8,215.067 268.8,211.8" style="fill:rgb(199,160,6);fill-rule:nonzero;"/>
            <path d="M287.25,205.1C289.15,206.933 290.1,209.167 290.1,211.8C290.1,214.4 289.15,216.617 287.25,218.45C285.383,220.283 283.217,221.2 280.75,221.2C278.017,221.2 275.733,220.283 273.9,218.45C272.067,216.617 271.15,214.4 271.15,211.8C271.15,209.167 272.067,206.933 273.9,205.1C275.733,203.233 278.017,202.333 280.75,202.4C283.217,202.333 285.383,203.233 287.25,205.1" style="fill:rgb(229,185,10);fill-rule:nonzero;"/>
            <path d="M268.8,211.8C268.8,215.067 269.95,217.867 272.25,220.2C274.55,222.533 277.383,223.7 280.75,223.7C283.917,223.7 286.65,222.533 288.95,220.2C291.283,217.867 292.467,215.067 292.5,211.8C292.467,208.467 291.283,205.683 288.95,203.45C286.65,201.15 283.917,200.017 280.75,200.05C277.383,200.017 274.55,201.15 272.25,203.45C269.95,205.683 268.8,208.467 268.8,211.8M295.45,211.8C295.417,215.933 293.95,219.433 291.05,222.3C288.15,225.167 284.717,226.6 280.75,226.6C276.583,226.6 273.05,225.167 270.15,222.3C267.25,219.433 265.8,215.933 265.8,211.8C265.8,207.667 267.25,204.183 270.15,201.35C273.05,198.483 276.583,197.067 280.75,197.1C284.717,197.067 288.15,198.483 291.05,201.35C293.95,204.183 295.417,207.667 295.45,211.8" style="fill:rgb(222,179,7);fill-rule:nonzero;"/>
            <path d="M295.45,211.8C295.417,207.667 293.95,204.183 291.05,201.35C288.15,198.483 284.717,197.067 280.75,197.1C276.583,197.067 273.05,198.483 270.15,201.35C267.25,204.183 265.8,207.667 265.8,211.8C265.8,215.933 267.25,219.433 270.15,222.3C273.05,225.167 276.583,226.6 280.75,226.6C284.717,226.6 288.15,225.167 291.05,222.3C293.95,219.433 295.417,215.933 295.45,211.8M298.3,211.8C298.3,216.7 296.567,220.867 293.1,224.3C289.7,227.7 285.583,229.4 280.75,229.4C275.85,229.4 271.667,227.7 268.2,224.3C264.767,220.867 263.05,216.7 263.05,211.8C263.05,206.967 264.767,202.817 268.2,199.35C271.667,195.917 275.85,194.2 280.75,194.2C285.583,194.2 289.7,195.917 293.1,199.35C296.567,202.817 298.3,206.967 298.3,211.8" style="fill:rgb(192,154,4);fill-rule:nonzero;"/>
            <path d="M284.6,204.85L287.7,208.05L283.95,211.8L287.7,215.6L284.6,218.8L280.8,215L277.05,218.8L273.85,215.6L277.65,211.8L273.85,208.05L277.05,204.85L280.8,208.6L284.6,204.85" style="fill-opacity:0.15;fill-rule:nonzero;"/>
        </g>
    </g>
</svg>
